<?xml version="1.0" standalone="no"?>
<!DOCTYPE svg PUBLIC "-//W3C//DTD SVG 20010904//EN"
 "http://www.w3.org/TR/2001/REC-SVG-20010904/DTD/svg10.dtd">
<svg version="1.0" xmlns="http://www.w3.org/2000/svg"
 width="720.000000pt" height="720.000000pt" viewBox="0 0 720.000000 720.000000"
 preserveAspectRatio="xMidYMid meet">
<metadata>
Created by potrace 1.11, written by Peter Selinger 2001-2013
</metadata>
<g transform="translate(0.000000,720.000000) scale(0.100000,-0.100000)"
fill="#000000" stroke="none">
<path d="M1963 5948 c-5 -7 -36 -58 -68 -113 -32 -55 -80 -136 -105 -180 -26
-44 -89 -154 -140 -245 -51 -91 -128 -226 -170 -300 -194 -340 -441 -800 -430
-800 5 0 46 9 92 20 101 23 268 53 274 48 7 -8 -107 -269 -214 -489 -227 -466
-515 -1089 -503 -1089 4 0 47 14 97 30 116 40 274 83 280 77 3 -3 -33 -99 -81
-213 -92 -224 -272 -675 -408 -1024 -47 -118 -81 -216 -77 -218 4 -1 45 11 91
28 564 205 1181 286 1754 229 363 -36 772 -138 1090 -272 256 -107 461 -163
714 -192 867 -102 1735 301 2225 1033 95 142 219 382 214 414 -2 17 -24 30
-98 60 -405 165 -863 348 -865 346 -1 -2 -25 -48 -54 -103 -175 -338 -474
-572 -851 -666 -121 -30 -379 -37 -510 -15 -514 90 -924 478 -1041 986 -31
134 -37 353 -14 492 79 479 423 878 883 1022 253 79 548 78 796 -5 318 -106
593 -344 745 -645 l40 -81 298 120 c164 66 384 154 488 197 163 65 190 79 187
95 -7 40 -127 273 -193 372 -354 535 -837 879 -1429 1019 -357 85 -675 94
-1000 28 -377 -76 -698 -219 -995 -443 -110 -83 -323 -291 -399 -388 -27 -35
-52 -63 -55 -63 -3 0 -38 58 -77 128 -162 290 -446 775 -469 800 -10 11 -14
11 -22 0z"/>
<path d="M4763 4013 c-93 -82 -199 -174 -235 -205 -36 -32 -70 -58 -75 -58 -6
0 -39 26 -74 58 -175 157 -389 342 -396 342 -5 0 -18 -8 -29 -18 -10 -10 -71
-62 -134 -117 -63 -54 -120 -104 -126 -110 -6 -5 -100 -86 -208 -180 l-197
-170 6 -78 c12 -162 84 -380 165 -497 10 -14 34 -50 54 -81 49 -77 167 -194
260 -258 477 -329 1114 -264 1505 155 178 192 292 453 308 704 l5 95 -218 190
c-119 105 -265 232 -323 282 -58 51 -109 93 -112 93 -3 0 -83 -66 -176 -147z"/>
</g>
</svg>
